<svg width="1600" height="320" viewBox="0 0 1600 320" xmlns="http://www.w3.org/2000/svg" role="img" aria-labelledby="t d">
  <title id="t">Section 11.5 - Storage Boundary and Persistence</title>
  <desc id="d">Unified cyber AI banner for Section 11.5</desc>
  <defs>
    <linearGradient id="bg" x1="0" y1="0" x2="1" y2="1">
      <stop offset="0%" stop-color="#031225"/>
      <stop offset="55%" stop-color="#0A2F55"/>
      <stop offset="100%" stop-color="#0F4E86"/>
    </linearGradient>
    <linearGradient id="acc" x1="0" y1="0" x2="1" y2="0">
      <stop offset="0%" stop-color="#34E4FF"/>
      <stop offset="100%" stop-color="#7FB8FF"/>
    </linearGradient>
    <filter id="glow" x="-50%" y="-50%" width="200%" height="200%">
      <feGaussianBlur stdDeviation="2.4" result="b"/>
      <feMerge><feMergeNode in="b"/><feMergeNode in="SourceGraphic"/></feMerge>
    </filter>
  </defs>

  <rect width="1600" height="320" fill="url(#bg)"/>

  <g opacity="0.2" stroke="#8DDCFF" stroke-width="1">
    <path d="M0 82H1600"/><path d="M0 112H1600"/><path d="M0 142H1600"/>
    <path d="M0 172H1600"/><path d="M0 202H1600"/><path d="M0 232H1600"/>
    <path d="M0 262H1600"/>
  </g>

  <g opacity="0.24" stroke="#7CD4FF" fill="none" stroke-width="1.4">
    <path d="M0 286 C 220 240, 390 304, 610 250 C 860 190, 1050 282, 1290 228 C 1430 198, 1510 214, 1600 194"/>
    <path d="M0 300 C 210 260, 430 318, 650 274 C 860 230, 1060 292, 1280 248 C 1430 220, 1515 235, 1600 216"/>
  </g>

  <g opacity="0.18" stroke="#7FE0FF" fill="none">
    <circle cx="1320" cy="82" r="42"/>
    <circle cx="1388" cy="118" r="26"/>
    <circle cx="1452" cy="82" r="42"/>
    <path d="M1358 95 L1368 104"/>
    <path d="M1414 104 L1423 95"/>
    <path d="M1358 69 L1368 60"/>
    <path d="M1414 60 L1423 69"/>
  </g>

  <g transform="translate(66,64)" filter="url(#glow)">
    <rect x="0" y="0" width="96" height="96" rx="18" fill="none" stroke="url(#acc)" stroke-width="3"/>
    <ellipse cx="48" cy="30" rx="22" ry="8" fill="none" stroke="#95E6FF" stroke-width="4"/><path d="M26 30 V66 C26 72 36 78 48 78 C60 78 70 72 70 66 V30" fill="none" stroke="#95E6FF" stroke-width="4"/><ellipse cx="48" cy="66" rx="22" ry="8" fill="none" stroke="#95E6FF" stroke-width="4"/>
  </g>

  <text x="208" y="96" fill="#CFEFFF" font-size="24" font-family="Segoe UI, Tahoma, sans-serif" letter-spacing="1.2">Section 11.5</text>
  <text x="208" y="152" fill="#FFFFFF" font-size="44" font-family="Segoe UI, Tahoma, sans-serif" font-weight="700">Storage Boundary and Persistence</text>
  <text x="208" y="196" fill="#8ED9FF" font-size="24" font-family="Segoe UI, Tahoma, sans-serif">CRUD boundary, schema, and migration path</text>
</svg>
