<svg xmlns="http://www.w3.org/2000/svg" width="1600" height="320" viewBox="0 0 1600 320" role="img" aria-label="Section 05 - API Reference and Invocation banner">
  <defs>
    <linearGradient id="bg" x1="0" y1="0" x2="1" y2="1">
      <stop offset="0%" stop-color="#031b16"/>
      <stop offset="100%" stop-color="#0a4a3c"/>
    </linearGradient>
    <linearGradient id="neon" x1="0" y1="0" x2="1" y2="0">
      <stop offset="0%" stop-color="#49f7a0"/>
      <stop offset="100%" stop-color="#9bffd7"/>
    </linearGradient>
    <linearGradient id="gold" x1="0" y1="0" x2="1" y2="1">
      <stop offset="0%" stop-color="#d7b76f"/>
      <stop offset="100%" stop-color="#987225"/>
    </linearGradient>
  </defs>
  <rect width="1600" height="320" fill="url(#bg)"/>
  <circle cx="1320" cy="68" r="150" fill="#90ffd8" fill-opacity="0.08"/>
  <g stroke="#8bffcf" stroke-opacity="0.18" stroke-width="1" fill="none">
    <path d="M0 256 L1600 256"/><path d="M0 288 L1600 288"/>
    <path d="M980 130 L980 320"/><path d="M1120 130 L1120 320"/><path d="M1260 130 L1260 320"/><path d="M1400 130 L1400 320"/>
  </g>
  <g transform="translate(70,56)">
    <path d="M62 10 L108 24 V80 C108 124 81 159 62 173 C43 159 16 124 16 80 V24 Z" fill="#0c3c32" stroke="url(#gold)" stroke-width="5"/>
    <path d="M42 83 L56 97 L83 66" fill="none" stroke="#9bffd7" stroke-width="6" stroke-linecap="round" stroke-linejoin="round"/>
  </g>
  <rect x="190" y="60" width="8" height="200" rx="4" fill="url(#neon)"/>
  <text x="222" y="120" fill="#cfffe9" font-size="24" font-family="Segoe UI, Tahoma, sans-serif" letter-spacing="1.2">MKT KSA INTEGRATED CYBER DEFENSE</text>
  <text x="222" y="188" fill="#ffffff" font-size="46" font-family="Segoe UI, Tahoma, sans-serif" font-weight="700">Section 05 - API Reference and Invocation</text>
</svg>
