<svg xmlns="http://www.w3.org/2000/svg" width="1600" height="320" viewBox="0 0 1600 320" role="img" aria-label="Section 09 - Library Integration and C ABI banner">
  <defs>
    <linearGradient id="bg" x1="0" y1="0" x2="1" y2="1">
      <stop offset="0%" stop-color="#04143d"/>
      <stop offset="100%" stop-color="#0c4b97"/>
    </linearGradient>
    <linearGradient id="line" x1="0" y1="0" x2="1" y2="0">
      <stop offset="0%" stop-color="#16d2ff"/>
      <stop offset="100%" stop-color="#5db2ff"/>
    </linearGradient>
  </defs>
  <rect width="1600" height="320" fill="url(#bg)"/>
  <circle cx="1360" cy="78" r="168" fill="#ffffff" fill-opacity="0.06"/>
  <g fill="#0b356e" fill-opacity="0.56">
    <rect x="1160" y="118" width="58" height="152" rx="8"/>
    <rect x="1230" y="86" width="72" height="184" rx="8"/>
    <rect x="1318" y="104" width="65" height="166" rx="8"/>
    <rect x="1398" y="74" width="80" height="196" rx="8"/>
  </g>
  <path d="M0 248 C 250 214, 560 292, 850 248 C 1130 206, 1380 286, 1600 242 L1600 320 L0 320 Z" fill="#0b2f64" fill-opacity="0.72"/>
  <rect x="190" y="60" width="8" height="200" rx="4" fill="url(#line)"/>
  <g transform="translate(62,72)"><path d="M20 24 H76 V70 H20 Z" fill="none" stroke="#8fd6ff" stroke-width="6"/><path d="M34 24 V70 M48 24 V70 M62 24 V70" stroke="#8fd6ff" stroke-width="4"/></g>
  <text x="250" y="120" fill="#cdeafd" font-size="24" font-family="Segoe UI, Tahoma, sans-serif" letter-spacing="1.2">MKT KSA GEO SECURITY</text>
  <text x="250" y="188" fill="#ffffff" font-size="44" font-family="Segoe UI, Tahoma, sans-serif" font-weight="700">Section 09 - Library Integration and C ABI</text>
</svg>
