<svg xmlns="http://www.w3.org/2000/svg" width="1600" height="620" viewBox="0 0 1600 620" role="img" aria-label="MKT KSA Geolocation Security cover banner">
  <defs>
    <linearGradient id="bg" x1="0" y1="0" x2="1" y2="1">
      <stop offset="0%" stop-color="#04173a"/>
      <stop offset="60%" stop-color="#063a7a"/>
      <stop offset="100%" stop-color="#0a5eb6"/>
    </linearGradient>
    <linearGradient id="accent" x1="0" y1="0" x2="1" y2="0">
      <stop offset="0%" stop-color="#10d6c5"/>
      <stop offset="100%" stop-color="#2e8fff"/>
    </linearGradient>
  </defs>
  <rect width="1600" height="620" fill="url(#bg)"/>
  <circle cx="1400" cy="110" r="180" fill="#ffffff" fill-opacity="0.06"/>
  <circle cx="1240" cy="160" r="110" fill="#ffffff" fill-opacity="0.05"/>
  <g fill="#0f4f9f" fill-opacity="0.45">
    <rect x="860" y="250" width="56" height="260" rx="8"/>
    <rect x="930" y="220" width="76" height="290" rx="8"/>
    <rect x="1025" y="270" width="66" height="240" rx="8"/>
    <rect x="1110" y="200" width="90" height="310" rx="8"/>
    <rect x="1220" y="245" width="70" height="265" rx="8"/>
    <rect x="1310" y="215" width="82" height="295" rx="8"/>
  </g>
  <path d="M0 470 C 350 430, 700 520, 980 460 C 1240 410, 1450 500, 1600 460 L1600 620 L0 620 Z" fill="#0c3a75" fill-opacity="0.65"/>
  <g transform="translate(72,95)">
    <path d="M90 18 L150 35 V105 C150 160 117 203 90 218 C63 203 30 160 30 105 V35 Z" fill="none" stroke="#ffffff" stroke-width="12"/>
    <path d="M58 108 L81 130 L124 84" fill="none" stroke="#ffffff" stroke-width="12" stroke-linecap="round" stroke-linejoin="round"/>
  </g>
  <text x="250" y="190" fill="#ffffff" font-size="82" font-weight="700" font-family="Segoe UI, Tahoma, sans-serif">MKT KSA</text>
  <text x="250" y="275" fill="#e9f5ff" font-size="74" font-weight="700" font-family="Segoe UI, Tahoma, sans-serif">Geolocation</text>
  <text x="250" y="355" fill="#e9f5ff" font-size="74" font-weight="700" font-family="Segoe UI, Tahoma, sans-serif">Security</text>
  <rect x="250" y="395" width="760" height="8" rx="4" fill="url(#accent)"/>
</svg>
