<svg xmlns="http://www.w3.org/2000/svg" width="1600" height="620" viewBox="0 0 1600 620" role="img" aria-label="MKT KSA Geolocation Security cover">
  <defs>
    <linearGradient id="bg" x1="0" y1="0" x2="1" y2="1">
      <stop offset="0%" stop-color="#04143d"/>
      <stop offset="60%" stop-color="#0a3f85"/>
      <stop offset="100%" stop-color="#0f65c5"/>
    </linearGradient>
    <linearGradient id="line" x1="0" y1="0" x2="1" y2="0">
      <stop offset="0%" stop-color="#16d2ff"/>
      <stop offset="100%" stop-color="#5db2ff"/>
    </linearGradient>
  </defs>
  <rect width="1600" height="620" fill="url(#bg)"/>
  <g fill="#0c3472" fill-opacity="0.5">
    <rect x="840" y="250" width="62" height="260" rx="8"/><rect x="918" y="220" width="74" height="290" rx="8"/>
    <rect x="1010" y="270" width="68" height="240" rx="8"/><rect x="1095" y="190" width="92" height="320" rx="8"/>
    <rect x="1210" y="240" width="72" height="270" rx="8"/><rect x="1300" y="200" width="86" height="310" rx="8"/>
  </g>
  <circle cx="1395" cy="120" r="180" fill="#ffffff" fill-opacity="0.06"/>
  <path d="M0 470 C 350 430, 700 520, 980 460 C 1240 410, 1450 500, 1600 460 L1600 620 L0 620 Z" fill="#0b2c61" fill-opacity="0.68"/>
  <g transform="translate(74,95)">
    <path d="M90 18 L150 35 V105 C150 160 117 203 90 218 C63 203 30 160 30 105 V35 Z" fill="none" stroke="#ffffff" stroke-width="12"/>
    <path d="M58 108 L81 130 L124 84" fill="none" stroke="#ffffff" stroke-width="12" stroke-linecap="round" stroke-linejoin="round"/>
  </g>
  <text x="250" y="190" fill="#ffffff" font-size="82" font-weight="700" font-family="Segoe UI, Tahoma, sans-serif">MKT KSA</text>
  <text x="250" y="275" fill="#e9f6ff" font-size="74" font-weight="700" font-family="Segoe UI, Tahoma, sans-serif">Geolocation</text>
  <text x="250" y="355" fill="#e9f6ff" font-size="74" font-weight="700" font-family="Segoe UI, Tahoma, sans-serif">Security</text>
  <rect x="250" y="395" width="760" height="8" rx="4" fill="url(#line)"/>
</svg>
